<?xml version="1.0" standalone="no"?>
<!DOCTYPE svg PUBLIC "-//W3C//DTD SVG 20010904//EN"
 "http://www.w3.org/TR/2001/REC-SVG-20010904/DTD/svg10.dtd">
<svg version="1.0" xmlns="http://www.w3.org/2000/svg"
 width="512.000000pt" height="512.000000pt" viewBox="0 0 512.000000 512.000000"
 preserveAspectRatio="xMidYMid meet">
<metadata>
Created by potrace 1.14, written by Peter Selinger 2001-2017
</metadata>
<g transform="translate(0.000000,512.000000) scale(0.100000,-0.100000)"
fill="#000000" stroke="none">
<path d="M2099 5116 c-2 -2 -38 -6 -79 -10 -136 -11 -177 -18 -340 -52 -69
-14 -204 -60 -278 -94 -99 -46 -195 -135 -207 -190 -4 -19 -54 -112 -110 -205
-56 -94 -117 -198 -135 -230 -18 -33 -44 -80 -58 -105 -13 -25 -58 -109 -99
-188 -79 -149 -86 -181 -49 -218 13 -12 11 -23 -16 -83 -24 -56 -34 -69 -50
-66 -59 12 -91 -41 -175 -295 -49 -149 -40 -240 30 -308 17 -17 102 -65 187
-108 85 -42 157 -78 159 -80 4 -3 -50 -76 -198 -269 -25 -33 -52 -66 -59 -73
-25 -27 -52 -91 -56 -135 -3 -32 3 -67 23 -123 25 -71 38 -103 86 -209 29 -63
145 -296 176 -352 18 -32 41 -74 52 -93 16 -30 61 -105 152 -253 80 -132 295
-424 435 -592 193 -233 450 -496 650 -669 109 -93 143 -116 175 -116 55 0 502
426 750 715 205 239 438 561 595 825 87 147 239 442 300 585 29 66 56 125 60
130 6 7 104 11 287 10 288 -1 322 3 337 40 16 43 -10 105 -45 105 -11 0 -21 6
-24 13 -2 6 -6 89 -9 182 -6 187 -10 226 -31 300 -39 135 -120 176 -240 119
-84 -39 -272 -185 -400 -309 l-20 -20 -72 90 c-39 50 -68 93 -64 97 3 4 74 41
156 82 168 83 193 102 226 166 30 57 29 130 -1 225 -64 198 -244 601 -367 820
-22 39 -53 95 -70 125 -45 82 -203 351 -224 381 -10 14 -27 51 -39 82 -36 96
-131 172 -295 234 -77 30 -201 63 -295 79 -25 4 -47 8 -50 9 -3 1 -32 5 -65 9
-33 4 -73 9 -90 12 -34 5 -521 14 -526 10z"/>
</g>
</svg>
